Coordinates
version=1
nRows=16
nColumns=36
inDegrees=yes

Units are S.I. units (second, meters, Newtons, ...)
If the header above contains a line with 'inDegrees', this indicates whether rotational values are in degrees (yes) or radians (no).

endheader
time	pelvis_tilt	pelvis_list	pelvis_rotation	pelvis_tx	pelvis_ty	pelvis_tz	hip_flexion_r	hip_adduction_r	hip_rotation_r	knee_angle_r	knee_angle_r_beta	ankle_angle_r	subtalar_angle_r	mtp_angle_r	hip_flexion_l	hip_adduction_l	hip_rotation_l	knee_angle_l	knee_angle_l_beta	ankle_angle_l	subtalar_angle_l	mtp_angle_l	lumbar_extension	lumbar_bending	lumbar_rotation	arm_flex_r	arm_add_r	arm_rot_r	elbow_flex_r	pro_sup_r	arm_flex_l	arm_add_l	arm_rot_l	elbow_flex_l	pro_sup_l
      1.14000000	     -3.12782548	      5.20416308	     -1.58841268	     -0.71266404	      1.30410058	     -0.59413936	     -2.28221074	     -6.19231918	      5.04080754	     33.86053816	      0.59097788	     -7.08476839	    -18.52394119	     -3.97181054	      0.72818149	      4.94429699	      0.72348752	     37.91474189	      0.66173708	    -14.22238072	    -10.75987536	     -3.97181054	    -11.62899227	     -5.50172635	     -3.18003284	     15.82254197	    -10.23087844	     -8.76976891	     43.92724867	     98.49063309	     13.24746894	    -17.32234396	     -1.97442039	     44.89508209	     98.01702551
      1.15000000	     -2.68567471	      5.07323794	     -1.54178747	     -0.70428641	      1.30728488	     -0.59451328	     -2.01730806	     -6.14804796	      4.75646109	     34.86111208	      0.60844119	     -7.48207743	    -18.42712048	     -3.99252395	      0.91429470	      4.62370030	      0.36129056	     38.84029730	      0.67789107	    -15.03020143	    -10.56512379	     -3.99252395	    -12.30523321	     -5.28341697	     -3.19358384	     15.56252408	    -10.54830069	     -8.79314297	     43.63858318	     98.51766244	     13.05871457	    -17.52548757	     -2.15951501	     44.53390626	     98.03725976
      1.16000000	     -2.77624896	      4.76037060	     -1.54658296	     -0.69623442	      1.31024832	     -0.59486646	     -0.99395237	     -5.83485465	      4.69274925	     35.89084268	      0.62641338	     -7.36899997	    -18.47830152	     -4.12417898	      1.88408152	      4.11658971	      0.01478355	     39.97284555	      0.69765777	    -15.34262680	    -10.70156876	     -4.12417898	    -12.23913692	     -4.83414914	     -3.07530920	     15.41954171	    -11.01067164	     -8.27756549	     42.42955723	     98.92151906	     13.08821720	    -17.25883108	     -3.19111264	     42.67915903	     98.16338027
      1.17000000	     -2.46133818	      4.56858789	     -1.57234010	     -0.68870725	      1.31255613	     -0.59605215	     -0.34564358	     -5.67373821	      4.48111457	     36.82463307	      0.64271109	     -6.72919807	    -18.33643180	     -4.29493666	      2.49236885	      3.76032431	     -0.29275725	     40.92192896	      0.71422240	    -15.06891981	    -10.77968844	     -4.29493666	    -12.89153388	     -4.55289310	     -3.05886687	     15.51315594	    -11.44403376	     -7.69750522	     41.07390545	     99.50581656	     13.16598126	    -17.17506154	     -3.99896856	     41.08437178	     98.46885648
      1.18000000	     -2.29974196	      4.34110748	     -1.59366511	     -0.68300396	      1.31251443	     -0.59804800	      0.59611554	     -5.48281721	      4.22876323	     37.81477345	      0.65999230	     -6.01515039	    -18.06985735	     -4.42342417	      3.45234710	      3.37520495	     -0.59227040	     41.84629073	      0.73035555	    -14.43424080	    -11.02221352	     -4.42342417	    -13.63132620	     -4.19102965	     -3.00015012	     15.62779143	    -11.91555630	     -7.31214531	     39.83850490	     99.98690940	     13.20762846	    -17.15988740	     -4.57514884	     39.64834966	     98.73678726
      1.19000000	     -1.87028088	      4.26274441	     -1.61616279	     -0.67763664	      1.31126641	     -0.59943056	      1.14779101	     -5.50583350	      3.86694268	     38.50373085	      0.67201688	     -5.97371852	    -18.08677451	     -4.43321287	      4.04447795	      3.15765389	     -0.89909584	     42.25937141	      0.73756517	    -14.08552519	    -11.36528719	     -4.43321287	    -14.87729045	     -4.01152666	     -2.96939598	     15.34835621	    -12.38067712	     -7.38030188	     39.44078012	    100.02656073	     12.87237095	    -17.40930441	     -4.69345791	     39.21719974	     98.75548918
      1.20000000	     -2.40658805	      4.00739033	     -1.65542975	     -0.67082750	      1.30700903	     -0.59970781	      2.93701520	     -5.32365666	      3.64051150	     39.38799802	      0.68745025	     -5.27541245	    -17.28097575	     -4.64108076	      6.05415671	      2.70275980	     -1.17364008	     43.12128734	      0.75260844	    -12.95678606	    -11.60322204	     -4.64108076	    -14.81867304	     -3.62682128	     -2.70631280	     15.86285035	    -12.96402391	     -6.18532324	     36.71317256	    101.06411429	     13.38937025	    -16.95048884	     -5.53881775	     36.16759318	     99.35068166
      1.21000000	     -2.59557667	      3.79550741	     -1.63712615	     -0.66174682	      1.30228051	     -0.59936189	      4.07376872	     -5.23120091	      3.21993641	     39.71172438	      0.69310034	     -5.02920965	    -16.67097229	     -4.72052673	      7.54411940	      2.28683453	     -1.32537566	     43.43486679	      0.75808144	    -11.82807315	    -11.63534648	     -4.72052673	    -15.31941160	     -3.29241644	     -2.44316737	     15.50947213	    -13.47122559	     -5.88014655	     35.56882001	    101.37547537	     12.98064487	    -16.87726622	     -5.82783101	     35.13641688	     99.57841058
      1.22000000	     -2.93700262	      3.63994344	     -1.64253623	     -0.65321640	      1.29725202	     -0.59913321	      5.35090392	     -5.18734360	      2.83354184	     39.74672567	      0.69371123	     -4.90747113	    -16.15512792	     -4.81477143	      9.20502815	      1.89617033	     -1.48379980	     43.38159386	      0.75715165	    -10.47828738	    -11.60027083	     -4.81477143	    -15.61906775	     -3.03810491	     -2.15813460	     15.10131329	    -13.92862459	     -5.39944301	     34.10710272	    101.71995461	     12.62795972	    -16.75873994	     -6.25289897	     33.53622415	     99.84540531
      1.23000000	     -3.25142326	      3.40934788	     -1.60558009	     -0.64382809	      1.29214052	     -0.59924126	      6.45624823	     -5.08650080	      2.34920932	     39.28444939	      0.68564299	     -4.91563712	    -15.73344875	     -4.89602751	     10.71599564	      1.43702076	     -1.53435377	     42.86246016	      0.74809106	     -9.06668570	    -11.54228882	     -4.89602751	    -15.96387949	     -2.67348159	     -1.89347141	     14.43808214	    -14.37833224	     -5.01440505	     32.73284856	    101.94801429	     12.07536028	    -16.61813438	     -6.62136064	     32.02851056	    100.07174922
      1.24000000	     -3.34254061	      3.29423428	     -1.67613565	     -0.63129914	      1.28688554	     -0.59917221	      7.16382668	     -5.10788276	      2.00409621	     38.30360710	      0.66852406	     -4.96912267	    -15.54508458	     -4.90910579	     11.60238095	      1.13895406	     -1.55639925	     41.49766933	      0.72427096	     -8.13291351	    -11.79091308	     -4.90910579	    -16.65711309	     -2.47055574	     -1.73718049	     13.41025767	    -14.77234454	     -5.03046552	     32.12971616	    101.93667631	     10.95948646	    -16.85119150	     -6.72471645	     31.37015525	    100.06952519
      1.25000000	     -4.04689188	      2.94200461	     -1.56018118	     -0.61764245	      1.28062750	     -0.59965683	      8.24306546	     -4.90919777	      1.42097633	     36.62574209	      0.63923979	     -5.16062712	    -14.91593145	     -5.02385669	     13.04049421	      0.56120956	     -1.40308457	     39.96818596	      0.69757644	     -6.57988281	    -10.84482669	     -5.02385669	    -16.17060107	     -1.96837344	     -1.44462456	     12.21837286	    -15.06065462	     -4.72045151	     29.93910284	    102.01805971	     10.19728546	    -16.40187281	     -7.47142705	     28.61413048	    100.27586511
      1.26000000	     -4.53019411	      2.69568377	     -1.55269270	     -0.60706861	      1.27381478	     -0.59981135	      9.04954434	     -4.81485841	      0.90912899	     34.56864110	      0.60333661	     -5.25497819	    -14.39612273	     -5.16472136	     13.98082930	      0.09160776	     -1.27047808	     37.76006728	      0.65903750	     -5.68173239	    -10.37858831	     -5.16472136	    -16.17431807	     -1.61866882	     -1.24685695	     10.89330579	    -15.34768550	     -4.57688736	     28.54792090	    101.88977819	      9.09618819	    -16.29895665	     -8.07464958	     26.77230931	    100.52435091
      1.27000000	     -5.04007600	      2.45235420	     -1.58249686	     -0.59890816	      1.26475424	     -0.59948266	      9.94048300	     -4.69710704	      0.45390410	     32.35186105	      0.56464649	     -5.38949168	    -14.03913687	     -5.16567669	     14.84564742	     -0.38467364	     -1.09376818	     35.17716177	      0.61395729	     -5.14867127	    -10.09631702	     -5.16567669	    -16.36271387	     -1.28075389	     -1.10678576	      9.43290309	    -15.57264079	     -4.60556583	     27.69635138	    102.06042327	      7.61611038	    -16.35051900	     -8.21703708	     25.78968490	    100.73407135
      1.28000000	     -6.04926589	      2.03854890	     -1.51507201	     -0.59125257	      1.25366976	     -0.59965551	     11.46530886	     -4.47081398	     -0.35187260	     30.09714209	      0.52529422	     -5.39462571	    -13.22978094	     -5.24821099	     16.34819418	     -1.10013634	     -0.89127539	     32.61217834	      0.56918989	     -4.41815810	     -9.01359666	     -5.24821099	    -15.96487988	     -0.73159273	     -0.93759191	      7.83792216	    -15.74185438	     -4.82624178	     26.40919075	    101.77958651	      6.52502655	    -16.14462658	     -9.05428636	     23.69007773	    100.69326370
      1.29000000	     -6.82663783	      1.74038352	     -1.63148506	     -0.58455528	      1.24351163	     -0.60054437	     12.80969926	     -4.34176644	     -0.96005734	     27.65224470	      0.48262272	     -5.81571961	    -12.67632876	     -5.25232789	     17.44543083	     -1.71195130	     -0.77493295	     29.62490994	      0.51705222	     -4.60614827	     -8.47809644	     -5.25232789	    -16.09127354	     -0.39940271	     -0.81073621	      6.23983938	    -15.84463634	     -4.90014348	     25.47121549	    101.90439319	      5.11433583	    -16.17215356	     -9.32965926	     22.52491784	    100.87409595
